<svg xmlns="http://www.w3.org/2000/svg" version="1.1" xmlns:xlink="http://www.w3.org/1999/xlink" xmlns:svgjs="http://svgjs.dev/svgjs" width="1000" height="1000" viewBox="0 0 1000 1000"><rect width="1000" height="1000" fill="#000000"></rect><g transform="matrix(0.7,0,0,0.7,149.57575757575756,393.5919494992115)"><svg viewBox="0 0 396 120" data-background-color="#ed1703" preserveAspectRatio="xMidYMid meet" height="303" width="1000" xmlns="http://www.w3.org/2000/svg" xmlns:xlink="http://www.w3.org/1999/xlink"><defs></defs><g id="tight-bounds" transform="matrix(1,0,0,1,0.2400000000000091,0.20257454075724013)"><svg viewBox="0 0 395.52 119.59485091848555" height="119.59485091848555" width="395.52"><g><svg viewBox="0 0 395.52 119.59485091848555" height="119.59485091848555" width="395.52"><g><svg viewBox="0 0 395.52 119.59485091848555" height="119.59485091848555" width="395.52"><g><svg viewBox="0 0 395.52 119.59485091848555" height="119.59485091848555" width="395.52"><g><rect width="395.52" height="91.94922405345213" fill="none" stroke-width="9.018103199999999" stroke="#ffffff" data-fill-palette-color="none" data-stroke-palette-color="tertiary"></rect><rect width="395.52" height="27.645626865033414" y="91.94922405345213" fill="#ffffff" data-fill-palette-color="tertiary"></rect></g><g><svg viewBox="0 0 395.52 91.94922405345213" height="91.94922405345213" width="395.52"><g transform="matrix(1,0,0,1,23.607599999999998,23.6076)"><svg width="348.3048" viewBox="0.5 -34.29999923706055 269.3800048828125 34.599998474121094" height="44.734024053452124" data-palette-color="#ffffff"><path d="M0.5-33.85L24.1-33.85 23.35-29.35 14.95-29.35 14.95 0 9.05 0 9.05-29.35 0.5-29.35 0.5-33.85ZM28.15 0L28.15-33.85 48.25-33.85 48.25-29.35 34.1-29.35 34.1-19.9 45.75-19.9 45-15.35 34.1-15.35 34.1-4.5 49-4.5 49 0 28.15 0ZM75.05-30.7L72-27.05Q70.8-28.35 69.47-29.03 68.15-29.7 66.4-29.7L66.4-29.7Q64.25-29.7 62.77-28.73 61.3-27.75 60.4-26.03 59.5-24.3 59.1-22 58.7-19.7 58.7-17.05L58.7-17.05Q58.7-14.4 59.07-12.1 59.45-9.8 60.37-8.05 61.3-6.3 62.87-5.3 64.45-4.3 66.84-4.3L66.84-4.3Q68-4.3 69.05-4.5 70.09-4.7 70.97-4.93 71.84-5.15 72.42-5.35 73-5.55 73.15-5.6L73.15-5.6 74.55-1.4 73.9-1.15Q73.25-0.9 72.07-0.58 70.9-0.25 69.27 0.03 67.65 0.3 65.7 0.3L65.7 0.3Q59 0.3 55.62-3.98 52.25-8.25 52.25-16.5L52.25-16.5Q52.25-20.45 53.15-23.73 54.05-27 55.87-29.35 57.7-31.7 60.47-33 63.25-34.3 67-34.3L67-34.3Q70-34.3 71.92-33.2 73.84-32.1 75.05-30.7L75.05-30.7ZM99.44 0L99.44-15.4 85.49-15.4 85.49 0 79.54 0 79.54-33.85 85.49-33.85 85.49-19.75 99.44-19.75 99.44-33.85 105.39-33.85 105.39 0 99.44 0ZM132.54-16.15L132.39-33.85 138.34-33.85 138.34 0.05 133.39 0.05 121.99-17.75Q121.04-19.2 119.92-21.03 118.79-22.85 117.79-24.4L117.79-24.4Q117.94-22.8 118.07-21.05 118.19-19.3 118.19-17.7L118.19-17.7 118.34 0 112.39 0 112.39-33.95 117.04-33.95 128.79-16.35Q129.79-14.9 130.82-13.28 131.84-11.65 132.84-10.15L132.84-10.15Q132.74-11.75 132.64-13.38 132.54-15 132.54-16.15L132.54-16.15ZM158.89-34.3Q162.64-34.3 165.29-33.1 167.94-31.9 169.66-29.7 171.39-27.5 172.19-24.33 172.99-21.15 172.99-17.2L172.99-17.2Q172.99-13.3 172.11-10.08 171.24-6.85 169.41-4.55 167.59-2.25 164.81-0.98 162.04 0.3 158.24 0.3L158.24 0.3Q154.49 0.3 151.81-0.83 149.14-1.95 147.41-4.13 145.69-6.3 144.89-9.4 144.09-12.5 144.09-16.5L144.09-16.5Q144.09-20.4 144.96-23.68 145.84-26.95 147.66-29.33 149.49-31.7 152.29-33 155.09-34.3 158.89-34.3L158.89-34.3ZM158.19-29.7Q155.99-29.7 154.54-28.73 153.09-27.75 152.19-26.05 151.29-24.35 150.91-22.05 150.54-19.75 150.54-17.05L150.54-17.05Q150.54-14.5 150.89-12.2 151.24-9.9 152.16-8.15 153.09-6.4 154.71-5.35 156.34-4.3 158.94-4.3L158.94-4.3Q161.09-4.3 162.56-5.25 164.04-6.2 164.94-7.85 165.84-9.5 166.21-11.78 166.59-14.05 166.59-16.7L166.59-16.7Q166.59-19.25 166.24-21.6 165.89-23.95 164.96-25.75 164.04-27.55 162.41-28.63 160.79-29.7 158.19-29.7L158.19-29.7ZM178.74 0L178.74-33.85Q179.09-33.85 180.34-33.88 181.59-33.9 183.14-33.9 184.69-33.9 186.24-33.93 187.79-33.95 188.79-33.95L188.79-33.95Q194.89-33.95 197.79-31.23 200.69-28.5 200.69-23.75L200.69-23.75Q200.69-21.45 199.89-19.53 199.09-17.6 197.51-16.2 195.94-14.8 193.61-14.03 191.29-13.25 188.19-13.25L188.19-13.25 184.69-13.25 184.69 0 178.74 0ZM184.69-29.65L184.69-17.7 188.54-17.7Q191.69-17.7 193.04-19.35 194.39-21 194.39-23.55L194.39-23.55Q194.39-24.7 194.09-25.8 193.79-26.9 193.06-27.78 192.34-28.65 191.11-29.18 189.89-29.7 188.04-29.7L188.04-29.7Q186.94-29.7 186.11-29.7 185.29-29.7 184.69-29.65L184.69-29.65ZM225.38 0L225.38-15.4 211.43-15.4 211.43 0 205.48 0 205.48-33.85 211.43-33.85 211.43-19.75 225.38-19.75 225.38-33.85 231.33-33.85 231.33 0 225.38 0ZM238.33 0L238.33-33.85 244.28-33.85 244.28 0 238.33 0ZM251.28 0L251.28-33.85 257.23-33.85 257.23-4.5 269.88-4.5 269.88 0 251.28 0Z" opacity="1" transform="matrix(1,0,0,1,0,0)" fill="#ffffff" class="undefined-text-0" data-fill-palette-color="primary" id="text-0"></path></svg></g></svg></g></svg></g></svg></g></svg></g></svg><rect width="395.52" height="119.59485091848555" fill="none" stroke="none" visibility="hidden"></rect></g></svg></g></svg>